<svg width="16" height="16" viewBox="0 0 16 16" fill="none" xmlns="http://www.w3.org/2000/svg"><path fill-rule="evenodd" clip-rule="evenodd" d="M9.47401 5.87028C9.2689 5.75992 8.32339 5.64955 7.32786 5.60942C6.14222 5.56929 6.1022 5.56929 6.1022 5.59938C6.1022 5.61443 6.2923 5.80506 6.52743 6.03081C6.76255 6.25154 6.95265 6.46725 6.95265 6.49735C6.95265 6.5425 6.8576 6.56257 6.65249 6.56257H6.35233L6.35733 6.82343C6.35733 6.96891 6.37735 7.3301 6.39736 7.62608L6.43237 8.16285L6.64749 8.39362L6.86261 8.62939L6.45239 9.05079V10.5257H6.89262C7.71806 10.5206 8.28837 10.4454 8.57853 10.2999C9.12382 10.034 9.36895 9.60261 9.53904 8.59428C9.70913 7.57591 9.65911 6.8134 9.39897 6.36692L9.29891 6.19636L9.43399 6.05589C9.55405 5.92546 9.55905 5.91543 9.47401 5.87028ZM8.76363 9.32168C8.65857 9.32168 7.92318 7.07426 7.76809 6.29669C7.74308 6.17128 7.75309 6.16124 7.89316 6.16124C7.97821 6.16124 8.21834 6.18633 8.42845 6.21642C8.73862 6.26157 8.80365 6.29167 8.80365 6.36692C8.80365 6.41709 8.84867 6.53247 8.8987 6.62277C8.95373 6.71307 9.03878 6.98898 9.0838 7.22977C9.15384 7.59097 9.15884 7.70635 9.11382 7.83678C9.0788 7.92708 9.02877 8.17791 9.00376 8.39863C8.94873 8.84009 8.82366 9.32168 8.76363 9.32168Z" fill="white"/><path fill-rule="evenodd" clip-rule="evenodd" d="M3 0C1.34315 0 0 1.34315 0 3V13C0 14.6569 1.34315 16 3 16H13C14.6569 16 16 14.6569 16 13V3C16 1.34315 14.6569 0 13 0H3ZM13.5962 2.08277C13.3711 2.35366 12.6807 3.71316 12.0554 5.1178L11.6402 6.05589L11.8253 6.5726C12.0204 7.12944 12.0454 7.40034 11.9303 7.67625C11.8903 7.77156 11.7902 8.13777 11.7102 8.48392C11.4701 9.49726 11.1599 10.0792 10.5296 10.7063C10.3245 10.9069 9.99929 11.1628 9.80919 11.2781C9.61908 11.3935 9.469 11.5139 9.47901 11.544C9.69913 12.2162 9.95426 13.059 9.95426 13.1042C9.95426 13.1995 10.1244 13.3349 10.2444 13.3349C10.3645 13.3349 10.5796 13.0791 10.6596 12.8283C10.6947 12.733 10.7897 12.5674 10.8798 12.457C10.9998 12.3065 11.0649 12.141 11.1499 11.7798C11.315 11.0474 11.4901 10.5206 11.6552 10.2598C11.7352 10.1294 11.8053 9.98387 11.8053 9.93872C11.8053 9.89357 11.8353 9.81832 11.8753 9.77819C11.9103 9.73304 11.9753 9.58255 12.0154 9.4471C12.0316 9.39631 12.0656 9.28717 12.111 9.141L12.1115 9.13962C12.1917 8.88155 12.3076 8.50864 12.4256 8.13777C12.7157 7.20971 12.7508 7.06423 12.7007 6.92878C12.6557 6.79333 12.6807 6.6629 12.8508 6.03583C12.9659 5.6345 13.0559 5.26829 13.0559 5.22314C13.0559 5.11278 13.3711 4.10445 13.5962 3.50246C14.0114 2.38878 14.0615 2.17307 13.9464 2.05769C13.8614 1.9724 13.6813 1.98244 13.5962 2.08277ZM2.7454 3.14628C2.13007 3.17638 2 3.22655 2 3.42721C2 3.57771 2.02501 3.59276 2.72539 3.89877C3.05557 4.04425 3.38074 4.21481 3.45078 4.28003C3.57084 4.39541 3.60086 4.40043 4.6164 4.41046L5.65696 4.42551L5.74201 4.29508C5.82205 4.17468 5.90209 4.0894 6.19225 3.83355C6.30231 3.73824 6.30231 3.73824 6.63249 4.09943L6.96266 4.45561H8.15831C9.33394 4.45561 9.34894 4.45561 9.40898 4.34524C9.444 4.28504 9.62409 4.06933 9.80919 3.86867C10.1694 3.49243 10.2044 3.41216 10.0743 3.28173C10.0043 3.2115 9.60909 3.16635 9.30392 3.19143C8.90871 3.22655 4.70645 3.23156 4.32625 3.19645C3.44578 3.11618 3.33572 3.11117 2.7454 3.14628ZM2.9405 4.98235L3.05056 4.95726C3.19564 4.92215 9.86422 4.94723 10.6947 4.98736C11.0549 5.00241 11.355 5.03753 11.355 5.06261C11.355 5.08769 11.265 5.18803 11.1549 5.28836C10.8898 5.52915 10.8948 5.62948 11.2149 6.5425L11.4701 7.27492L11.39 7.5107C11.345 7.63611 11.26 7.94714 11.2049 8.20299C10.8547 9.81832 10.0043 10.7715 8.55351 11.1929C7.83813 11.3985 5.77202 11.5591 5.52689 11.4286C5.42683 11.3735 5.39182 11.3735 5.32678 11.4286C5.23173 11.5089 3.75594 11.5641 3.51081 11.4939L3.34072 11.4537L3.56083 11.2932C3.75094 11.1577 4.01608 11.0574 4.87654 10.8116C4.97382 10.7823 5.02381 10.7673 5.04777 10.7336C5.0731 10.6981 5.06935 10.6417 5.06164 10.5257C5.05319 10.4198 5.04117 10.1026 5.0286 9.77096L5.02162 9.58756C5.00161 8.98557 5.00661 8.85514 5.07665 8.74979C5.15169 8.63441 5.15169 8.61434 5.08165 8.509C5.01661 8.42372 5.00161 8.26318 5.00161 7.78159C5.00161 7.44548 5.02162 7.11439 5.05163 7.04416C5.07665 6.97393 5.19171 6.8134 5.30677 6.68798C5.42183 6.56257 5.50688 6.44719 5.49187 6.43214C5.47686 6.4221 5.33679 6.38699 5.1817 6.3619C5.02162 6.33682 4.8115 6.26659 4.71145 6.20137C4.32124 5.96559 3.17062 5.18803 3.06056 5.08769L2.9405 4.98235ZM3.66589 6.59267C3.6809 6.80838 3.75093 7.21472 3.81597 7.49063C3.88601 7.76654 4.01608 8.52906 4.10613 9.18623C4.2512 10.2347 4.28622 10.3752 4.36126 10.3651C4.4363 10.3501 4.44631 10.2397 4.47132 9.2966C4.48633 8.71468 4.50134 7.90701 4.50634 7.50067L4.51134 6.7532L4.14615 6.51742C4.03439 6.44635 3.92561 6.37677 3.84326 6.32411L3.84205 6.32333C3.77402 6.27982 3.72399 6.24782 3.70591 6.23649C3.64588 6.20137 3.64088 6.25656 3.66589 6.59267ZM4.94658 12.0206L4.46632 12.0356L4.48633 12.3216C4.50634 12.6477 4.63141 13.3801 4.70645 13.6259C4.77649 13.8366 4.97659 13.9018 5.10166 13.7513C5.1817 13.651 5.47686 12.2062 5.44184 12.0708C5.43184 12.0206 5.31678 12.0106 4.94658 12.0206Z" fill="white"/></svg>